<?xml version="1.0" encoding="UTF-8"?><svg id="Layer_1" xmlns="http://www.w3.org/2000/svg" viewBox="0 0 1625.97 525.03"><defs><style>.cls-1{fill:#fff;}.cls-2{fill:#9c9ea1;}.cls-3{fill:#34a7df;}</style></defs><path class="cls-1" d="m322.5,184.5c-8.57,51.08-52.99,90-106.5,90-20.95,0-40.51-5.97-57.07-16.3-1.77-1.1-3.84.95-2.76,2.74,25.97,43.17,73.27,72.06,127.33,72.06,82.01,0,148.5-66.49,148.5-148.5h-109.5Z"/><path class="cls-3" d="m216,91.5c-41.36,0-75,33.65-75,75s33.64,75,75,75,75-33.65,75-75-33.64-75-75-75Z"/><path class="cls-1" d="m216,58.5c20.95,0,40.51,5.97,57.07,16.3,1.77,1.1,3.84-.95,2.76-2.74C249.85,28.88,202.55,0,148.5,0,66.49,0,0,66.49,0,148.5h109.5c8.57-51.08,52.99-90,106.5-90Z"/><path class="cls-1" d="m609.35,303.43c.11-.45.45-.56.78-.56h11.26c.33,0,.56.11.56.56,0,6.24-7.8,25.87-32.67,25.87s-35.12-16.28-35.12-39.92,12.26-40.81,35.12-40.81c24.64,0,32.67,19.4,32.67,25.98,0,.33-.22.56-.56.56h-11.37c-.33,0-.56-.22-.67-.56-1.45-4.13-5.57-15.05-20.07-15.05s-22.63,11.71-22.63,29.88,8.14,29.1,22.63,29.1,18.73-10.7,20.07-15.05Z"/><path class="cls-1" d="m654.73,329.3c-17.39,0-27.65-11.93-27.65-29.32s10.26-29.32,27.65-29.32,27.76,11.93,27.76,29.32-10.37,29.32-27.76,29.32Zm0-47.83c-9.92,0-15.61,7.47-15.61,18.51s5.69,18.51,15.61,18.51,15.72-7.47,15.72-18.51-5.58-18.51-15.72-18.51Z"/><path class="cls-1" d="m717.05,270.65c16.84,0,23.97,12.15,23.97,26.42v30.55c0,.33-.22.56-.56.56h-10.93c-.33,0-.56-.22-.56-.56v-30.55c0-7.58-3.68-15.61-13.6-15.61-9.03,0-13.49,7.36-13.49,15.05v31.11c0,.33-.22.56-.56.56h-10.81c-.33,0-.56-.22-.56-.56v-55.3c0-.33.22-.56.56-.56h9.48c.45,0,.67.22.78.56l1.12,4.13c.22.78.89.67,1.23.22,2.23-3.01,7.92-6.02,13.94-6.02Z"/><path class="cls-1" d="m772.92,329.3c-16.84,0-25.31-9.25-25.31-19.62,0-.33.22-.56.56-.56h11.04c.33,0,.67.22.67.56,0,4.57,4.57,8.81,13.04,8.81,5.13,0,12.6-1.11,12.6-7.47,0-12.15-36.9.67-36.9-23.3,0-9.37,9.03-17.06,22.97-17.06s24.42,6.58,24.42,19.62c0,.33-.11.56-.45.56h-11.04c-.33,0-.56-.22-.56-.56,0-4.57-3.79-8.81-12.38-8.81-7.58,0-11.04,3.01-11.04,6.24,0,11.71,37.02-1,37.02,23.3,0,12.38-10.15,18.29-24.64,18.29Z"/><path class="cls-1" d="m801.79,281.8c-.33,0-.56-.22-.56-.56v-8.92c0-.33.22-.56.56-.56h9.48c.33,0,.56-.22.56-.56v-15.05c0-.33.22-.56.56-.56h10.93c.33,0,.56.22.56.56v15.05c0,.33.22.56.56.56h11.71c.33,0,.56.22.56.56v8.92c0,.33-.22.56-.56.56h-11.71c-.33,0-.56.22-.56.56v30.44c0,2.79,1.67,4.57,5.02,4.57h7.25c.33,0,.56.22.56.56v9.7c0,.33-.22.56-.56.56h-8.7c-11.26,0-15.61-4.57-15.61-15.72v-30.1c0-.33-.22-.56-.56-.56h-9.48Z"/><path class="cls-1" d="m871.93,281.8c-9.03,0-13.49,7.02-13.49,14.72v31.11c0,.33-.22.56-.56.56h-10.93c-.22,0-.45-.22-.45-.56v-55.3c0-.33.22-.56.45-.56h9.59c.45,0,.67.22.78.67l1.12,4.13c.22.56.78.56,1.12.22,3.57-3.57,7.58-6.13,12.93-6.13h5.91c.33,0,.56.22.56.56v10.03c0,.33-.22.56-.56.56h-6.47Z"/><path class="cls-1" d="m910.06,329.3c-16.84,0-23.97-12.15-23.97-26.42v-30.55c0-.33.22-.56.56-.56h10.93c.33,0,.56.22.56.56v30.55c0,7.58,3.68,15.61,13.6,15.61,9.03,0,13.49-7.36,13.49-15.05v-31.11c0-.33.22-.56.56-.56h10.82c.33,0,.56.22.56.56v55.3c0,.33-.22.56-.56.56h-9.48c-.45,0-.67-.22-.78-.56l-1.12-4.24c-.22-.67-.89-.56-1.23-.11-2.23,3.01-7.92,6.02-13.94,6.02Z"/><path class="cls-1" d="m998.25,290.27c.11.33-.11.56-.56.56h-11.26c-.33,0-.67-.22-.78-.56-2.12-5.69-6.69-8.81-13.71-8.81-9.92,0-15.39,7.8-15.39,18.51s5.46,18.51,15.39,18.51c7.58,0,11.71-3.01,13.83-8.81.11-.33.45-.56.78-.56h11.26c.22,0,.67.11.56.56-2.9,12.93-12.26,19.62-26.42,19.62-17.39,0-27.43-11.93-27.43-29.32s10.03-29.32,27.43-29.32c14.16,0,24.19,7.92,26.31,19.62Z"/><path class="cls-1" d="m1001.49,281.8c-.33,0-.56-.22-.56-.56v-8.92c0-.33.22-.56.56-.56h9.48c.33,0,.56-.22.56-.56v-15.05c0-.33.22-.56.56-.56h10.93c.33,0,.56.22.56.56v15.05c0,.33.22.56.56.56h11.71c.33,0,.56.22.56.56v8.92c0,.33-.22.56-.56.56h-11.71c-.33,0-.56.22-.56.56v30.44c0,2.79,1.67,4.57,5.02,4.57h7.25c.33,0,.56.22.56.56v9.7c0,.33-.22.56-.56.56h-8.7c-11.26,0-15.61-4.57-15.61-15.72v-30.1c0-.33-.22-.56-.56-.56h-9.48Z"/><path class="cls-1" d="m1046.09,263.29c-.33,0-.56-.22-.56-.56v-12.49c0-.33.22-.56.56-.56h12.26c.33,0,.56.22.56.56v12.49c0,.33-.22.56-.56.56h-12.26Zm.67,64.89c-.33,0-.56-.22-.56-.56v-55.3c0-.33.22-.56.56-.56h10.81c.33,0,.56.22.56.56v55.3c0,.33-.22.56-.56.56h-10.81Z"/><path class="cls-1" d="m1093.25,329.3c-17.39,0-27.65-11.93-27.65-29.32s10.26-29.32,27.65-29.32,27.76,11.93,27.76,29.32-10.37,29.32-27.76,29.32Zm0-47.83c-9.92,0-15.61,7.47-15.61,18.51s5.69,18.51,15.61,18.51,15.72-7.47,15.72-18.51-5.58-18.51-15.72-18.51Z"/><path class="cls-1" d="m1155.47,270.65c16.84,0,23.97,12.15,23.97,26.42v30.55c0,.33-.22.56-.56.56h-10.93c-.33,0-.56-.22-.56-.56v-30.55c0-7.58-3.68-15.61-13.6-15.61-9.03,0-13.49,7.36-13.49,15.05v31.11c0,.33-.22.56-.56.56h-10.81c-.33,0-.56-.22-.56-.56v-55.3c0-.33.22-.56.56-.56h9.48c.45,0,.67.22.78.56l1.12,4.13c.22.78.89.67,1.23.22,2.23-3.01,7.92-6.02,13.94-6.02Z"/><path class="cls-1" d="m1277.44,249.69c.33,0,.56.22.56.56v77.38c0,.33-.22.56-.56.56h-16.5c-.33,0-.67-.11-.89-.56l-32.11-62.77c-.33-.67-1.12-.56-1.12.11v62.66c0,.33-.22.56-.56.56h-10.93c-.22,0-.45-.22-.45-.56v-77.38c0-.33.22-.56.56-.56h16.5c.33,0,.56.11.78.56l32.11,62.77c.33.78,1.12.56,1.12,0v-62.77c0-.33.22-.56.56-.56h10.93Z"/><path class="cls-1" d="m1338.55,304.77h-40.03c-.33,0-.56.22-.56.56,0,7.14,5.69,13.16,14.61,13.16,6.35,0,10.59-2.56,12.49-6.47.22-.45.45-.56.89-.56h11.15c.33,0,.89,0,.67.89-2.68,10.59-12.6,16.95-25.2,16.95-16.5,0-27.21-11.93-27.21-29.32s10.37-29.32,27.21-29.32,27.21,12.26,27.21,29.66c0,1.67-.22,2.9-.45,3.9-.11.33-.45.56-.78.56Zm-12.26-10.03c.33,0,.56-.22.56-.56,0-5.35-4.24-12.71-14.27-12.71s-14.61,7.92-14.61,12.71c0,.33.22.56.56.56h27.76Z"/><path class="cls-1" d="m1342.79,281.8c-.33,0-.56-.22-.56-.56v-8.92c0-.33.22-.56.56-.56h9.48c.33,0,.56-.22.56-.56v-15.05c0-.33.22-.56.56-.56h10.93c.33,0,.56.22.56.56v15.05c0,.33.22.56.56.56h11.71c.33,0,.56.22.56.56v8.92c0,.33-.22.56-.56.56h-11.71c-.33,0-.56.22-.56.56v30.44c0,2.79,1.67,4.57,5.02,4.57h7.25c.33,0,.56.22.56.56v9.7c0,.33-.22.56-.56.56h-8.7c-11.26,0-15.61-4.57-15.61-15.72v-30.1c0-.33-.22-.56-.56-.56h-9.48Z"/><path class="cls-1" d="m1455.29,272.43c.11-.45.45-.67.78-.67h10.81c.33,0,.78.22.67.67l-13.16,55.19c-.11.56-.56.56-.89.56h-16.17c-.33,0-.67-.11-.78-.56l-10.37-43.82c-.11-.56-1-.56-1.12,0l-10.26,43.82c-.11.45-.45.56-.78.56h-16.28c-.33,0-.67-.11-.78-.56l-13.16-55.19c-.11-.45.11-.67.56-.67h10.93c.33,0,.67.22.78.67l9.25,43.93c.11.56.89.67,1.12,0l10.7-43.93c.11-.56.45-.67.89-.67h15.28c.45,0,.78.11.89.67l10.7,43.93c.11.45.89.67,1.12,0l9.25-43.93Z"/><path class="cls-1" d="m1497.1,329.3c-17.39,0-27.65-11.93-27.65-29.32s10.26-29.32,27.65-29.32,27.76,11.93,27.76,29.32-10.37,29.32-27.76,29.32Zm0-47.83c-9.92,0-15.61,7.47-15.61,18.51s5.69,18.51,15.61,18.51,15.72-7.47,15.72-18.51-5.58-18.51-15.72-18.51Z"/><path class="cls-1" d="m1557.64,281.8c-9.03,0-13.49,7.02-13.49,14.72v31.11c0,.33-.22.56-.56.56h-10.93c-.22,0-.45-.22-.45-.56v-55.3c0-.33.22-.56.45-.56h9.59c.45,0,.67.22.78.67l1.12,4.13c.22.56.78.56,1.12.22,3.57-3.57,7.58-6.13,12.93-6.13h5.91c.33,0,.56.22.56.56v10.03c0,.33-.22.56-.56.56h-6.47Z"/><path class="cls-1" d="m1584.07,308c-.22.22-.56.56-.56,1.34v18.29c0,.33-.22.56-.56.56h-10.81c-.33,0-.56-.22-.56-.56v-77.38c0-.33.22-.56.56-.56h10.81c.33,0,.56.22.56.56v42.26c0,.33.45.56.78.22l23.75-20.4c.56-.45,1.12-.56,1.45-.56h15.83c.45,0,.67.56.33.78l-20.96,17.95c-.22.22-.22.45,0,.78l21.18,36.24c.22.45,0,.67-.45.67h-11.37c-.67,0-.89,0-1.34-.67l-16.72-28.77c-.22-.45-.67-.33-1,0l-10.93,9.25Z"/><path class="cls-1" d="m644.82,184.14h-85.15c-.77,0-1.28-.51-1.28-1.28V5.4c0-.77.51-1.28,1.28-1.28h85.15c28.9,0,48.58,24.04,48.58,52.68,0,14.06-9.21,29.66-19.95,35.03-1.28.51-1.28,2.05,0,2.56,12.53,6.14,24.29,20.71,24.29,37.08,0,31.2-21.48,52.68-52.93,52.68Zm-2.56-151.89h-52.16c-.77,0-1.02.51-1.02,1.02v44.24c0,.77.51,1.28,1.28,1.28h50.12c11-.51,22.76-9.72,22.76-21.99s-7.42-24.55-20.97-24.55Zm-1.79,123.76c13.55,0,26.59-12.02,26.59-24.55s-11.25-24.55-24.8-24.55h-51.91c-.77,0-1.28.51-1.28,1.28v46.54c0,.77.51,1.28,1.28,1.28h50.12Z"/><path class="cls-1" d="m709.25,184.14c-.77,0-1.28-.51-1.28-1.28V5.4c0-.77.51-1.28,1.28-1.28h28.13c.77,0,1.28.51,1.28,1.28v177.46c0,.77-.51,1.28-1.28,1.28h-28.13Z"/><path class="cls-1" d="m815.88,186.69c-42.7,0-56.51-28.64-56.51-60.86V56.03c0-.77.51-1.28,1.28-1.28h28.13c.77,0,1.28.51,1.28,1.28v69.81c0,15.34,8.18,32.73,28.38,32.73s28.13-14.83,28.13-30.17V56.03c0-.77.51-1.28,1.28-1.28h28.38c.51,0,1.02.51,1.02,1.28v126.83c0,.77-.51,1.28-1.28,1.28h-24.29c-1.53,0-2.04-.51-2.56-1.53l-2.56-7.67c-.51-1.02-1.79-1.53-2.81-.26-5.37,5.63-17.13,12.02-27.87,12.02Z"/><path class="cls-1" d="m1009.44,131.21h-88.99c-.77,0-1.28.51-1.28,1.28,0,14.06,12.27,26.08,30.43,26.08,11.25,0,20.46-2.81,24.8-11.51.26-.51.77-1.28,2.05-1.28h29.92c.77,0,1.53.51,1.28,1.28-5.63,24.8-28.9,39.63-58.05,39.63-37.33,0-62.39-27.36-62.39-67.25s25.06-67.25,62.39-67.25,62.39,27.36,62.39,67.25c0,5.11-.51,7.42-1.28,10.48-.26.77-.51,1.28-1.28,1.28Zm-31.2-25.57c.77,0,1.02-.26,1.02-1.02,0-10.23-8.69-24.29-29.66-24.29s-30.43,14.32-30.43,24.29c0,.77.25,1.02,1.02,1.02h58.05Z"/><path class="cls-1" d="m1163.11,184.14h-85.15c-.77,0-1.28-.51-1.28-1.28V5.4c0-.77.51-1.28,1.28-1.28h85.15c28.9,0,48.58,24.04,48.58,52.68,0,14.06-9.21,29.66-19.95,35.03-1.28.51-1.28,2.05,0,2.56,12.53,6.14,24.29,20.71,24.29,37.08,0,31.2-21.48,52.68-52.93,52.68Zm-2.56-151.89h-52.16c-.77,0-1.02.51-1.02,1.02v44.24c0,.77.51,1.28,1.28,1.28h50.12c11-.51,22.76-9.72,22.76-21.99s-7.42-24.55-20.97-24.55Zm-1.79,123.76c13.55,0,26.59-12.02,26.59-24.55s-11.25-24.55-24.8-24.55h-51.91c-.77,0-1.28.51-1.28,1.28v46.54c0,.77.51,1.28,1.28,1.28h50.12Z"/><path class="cls-1" d="m1288.15,186.69c-39.89,0-63.42-27.36-63.42-67.25s23.53-67.25,63.42-67.25,63.67,27.36,63.67,67.25-23.78,67.25-63.67,67.25Zm0-106.37c-21.48,0-32.73,15.09-32.73,39.12s11.25,39.12,32.73,39.12,32.99-15.09,32.99-39.12-11.25-39.12-32.99-39.12Z"/><path class="cls-1" d="m1423.92,186.69c-39.89,0-63.42-27.36-63.42-67.25s23.53-67.25,63.42-67.25,63.67,27.36,63.67,67.25-23.78,67.25-63.67,67.25Zm0-106.37c-21.48,0-32.73,15.09-32.73,39.12s11.25,39.12,32.73,39.12,32.99-15.09,32.99-39.12-11.25-39.12-32.99-39.12Z"/><path class="cls-1" d="m1530.03,138.37c-1.28,1.02-1.53,1.53-1.53,3.07v41.42c0,.77-.51,1.28-1.28,1.28h-28.13c-.77,0-1.28-.51-1.28-1.28V5.4c0-.77.51-1.28,1.28-1.28h28.13c.77,0,1.28.51,1.28,1.28v93.33c0,.77,1.02,1.53,1.79.77l50.38-43.47c1.28-1.02,2.56-1.28,3.32-1.28h40.4c1.28,0,1.79,1.53.77,2.3l-48.84,41.68c-.51.51-.51.77,0,1.79l48.07,81.57c.51,1.02,0,2.05-1.02,2.05h-30.43c-1.28,0-1.79-.51-2.3-1.28l-37.08-63.42c-.26-.51-1.28-.51-1.79,0-7.42,6.39-21.73,18.92-21.73,18.92Z"/><path class="cls-1" d="m47.57,464.22c0,2.68-.5,5.18-1.49,7.48-1,2.3-2.34,4.32-4.04,6.04-1.7,1.72-3.67,3.06-5.92,4.03-2.25.96-4.61,1.44-7.06,1.44h-15.26c-.23,0-.35.12-.35.35v22.84c0,.29-.15.44-.44.44H3.38c-.29,0-.44-.14-.44-.44v-60.72c0-.29.14-.44.44-.44h25.69c2.46,0,4.81.5,7.06,1.49,2.25.99,4.22,2.33,5.92,4.02,1.7,1.69,3.04,3.69,4.03,5.99.99,2.3,1.49,4.8,1.49,7.48Zm-19.43,9.36c1.17,0,2.29-.25,3.37-.74,1.08-.49,2.03-1.17,2.84-2.01.82-.85,1.47-1.84,1.97-2.98.5-1.14.74-2.35.74-3.63s-.25-2.49-.74-3.63c-.5-1.14-1.15-2.13-1.97-2.97-.82-.84-1.76-1.52-2.84-2.01-1.08-.5-2.2-.74-3.37-.74h-14.35c-.23,0-.35.12-.35.35v17.94c0,.29.14.44.44.44h14.26Z"/><path class="cls-1" d="m92.81,484.69c0,3.44-.5,6.56-1.49,9.36-.99,2.8-2.42,5.22-4.29,7.26-1.87,2.04-4.16,3.62-6.87,4.73s-5.76,1.66-9.14,1.66-6.51-.55-9.19-1.66c-2.68-1.11-4.94-2.68-6.78-4.73-1.84-2.04-3.25-4.46-4.24-7.26-.99-2.8-1.49-5.92-1.49-9.36s.5-6.58,1.49-9.41c.99-2.83,2.41-5.25,4.24-7.26,1.84-2.01,4.1-3.57,6.78-4.68,2.68-1.11,5.74-1.66,9.19-1.66s6.43.56,9.14,1.66c2.71,1.11,5,2.68,6.87,4.72,1.87,2.04,3.29,4.48,4.29,7.31.99,2.83,1.49,5.94,1.49,9.32Zm-10.5,0c0-4.14-.95-7.41-2.84-9.8-1.9-2.39-4.71-3.59-8.44-3.59s-6.46,1.2-8.36,3.59c-1.9,2.39-2.84,5.66-2.84,9.8s.95,7.41,2.84,9.8c1.9,2.39,4.68,3.59,8.36,3.59s6.55-1.2,8.44-3.59c1.89-2.39,2.84-5.66,2.84-9.8Z"/><path class="cls-1" d="m153.97,463.08c.12-.35.29-.53.52-.53h9.8c.35,0,.5.18.44.53l-10.15,43.31c-.12.29-.29.44-.52.44h-14.96c-.23,0-.41-.14-.53-.44l-7.7-33.86c-.06-.29-.21-.44-.44-.44s-.38.15-.44.44l-7.7,33.86c-.12.29-.29.44-.52.44h-14.96c-.23,0-.41-.14-.52-.44l-10.15-43.31c-.12-.35,0-.53.35-.53h9.8c.29,0,.49.18.61.53l7,33.78c.06.29.2.44.44.44s.38-.15.44-.44l8.05-33.78c.12-.35.32-.53.61-.53h14c.29,0,.49.18.61.53l8.05,33.78c.06.23.2.35.44.35s.38-.12.44-.35l7-33.78Z"/><path class="cls-1" d="m210.32,488.28c-.12.29-.26.44-.44.44h-30.45c-.29,0-.44.15-.44.44,0,1.22.25,2.38.74,3.46.5,1.08,1.21,2.03,2.14,2.84.93.82,2.03,1.46,3.28,1.92,1.25.47,2.67.7,4.24.7,1.92,0,3.63-.28,5.12-.83,1.49-.55,2.61-1.59,3.37-3.11.12-.29.35-.44.7-.44h10.24c.41,0,.55.15.44.44-.99,4.26-3.3,7.58-6.91,9.97-3.62,2.39-7.93,3.59-12.95,3.59-3.21,0-6.12-.55-8.75-1.66s-4.87-2.68-6.74-4.73c-1.87-2.04-3.31-4.46-4.33-7.26-1.02-2.8-1.53-5.92-1.53-9.36s.51-6.58,1.53-9.41c1.02-2.83,2.46-5.25,4.33-7.26,1.87-2.01,4.11-3.57,6.74-4.68,2.62-1.11,5.54-1.66,8.75-1.66s6.12.56,8.75,1.66c2.62,1.11,4.87,2.68,6.74,4.72,1.87,2.04,3.31,4.48,4.33,7.31,1.02,2.83,1.53,5.94,1.53,9.32,0,.88-.04,1.56-.13,2.06-.09.5-.19,1.01-.31,1.53Zm-11.11-8.31c.23,0,.35-.12.35-.35,0-.88-.19-1.79-.57-2.76-.38-.96-.98-1.87-1.79-2.71-.82-.84-1.87-1.53-3.15-2.06-1.28-.53-2.83-.79-4.64-.79s-3.28.28-4.59.83c-1.31.55-2.41,1.24-3.28,2.06-.88.82-1.52,1.71-1.92,2.67-.41.96-.61,1.88-.61,2.76,0,.23.12.35.35.35h19.86Z"/><path class="cls-1" d="m238.93,471.74c-1.69,0-3.15.26-4.38.79-1.22.52-2.23,1.25-3.02,2.19-.79.93-1.36,2-1.71,3.19-.35,1.2-.53,2.44-.53,3.72v24.76c0,.29-.15.44-.44.44h-9.71c-.23,0-.35-.14-.35-.44v-43.4c0-.29.12-.44.35-.44h8.4c.47,0,.76.18.88.53l.88,2.62c.23.41.5.47.79.17,1.34-1.34,2.79-2.38,4.33-3.11,1.54-.73,3.34-1.09,5.38-1.09h4.81c.29,0,.44.15.44.44v9.19c0,.29-.15.44-.44.44h-5.69Z"/><path class="cls-1" d="m288.63,488.28c-.12.29-.26.44-.44.44h-30.45c-.29,0-.44.15-.44.44,0,1.22.25,2.38.74,3.46.5,1.08,1.21,2.03,2.14,2.84.93.82,2.03,1.46,3.28,1.92,1.25.47,2.67.7,4.24.7,1.92,0,3.63-.28,5.12-.83,1.49-.55,2.61-1.59,3.37-3.11.12-.29.35-.44.7-.44h10.24c.41,0,.55.15.44.44-.99,4.26-3.3,7.58-6.91,9.97-3.62,2.39-7.93,3.59-12.95,3.59-3.21,0-6.12-.55-8.75-1.66s-4.87-2.68-6.74-4.73c-1.87-2.04-3.31-4.46-4.33-7.26-1.02-2.8-1.53-5.92-1.53-9.36s.51-6.58,1.53-9.41c1.02-2.83,2.46-5.25,4.33-7.26,1.87-2.01,4.11-3.57,6.74-4.68,2.62-1.11,5.54-1.66,8.75-1.66s6.12.56,8.75,1.66c2.62,1.11,4.87,2.68,6.74,4.72,1.87,2.04,3.31,4.48,4.33,7.31,1.02,2.83,1.53,5.94,1.53,9.32,0,.88-.04,1.56-.13,2.06-.09.5-.19,1.01-.31,1.53Zm-11.11-8.31c.23,0,.35-.12.35-.35,0-.88-.19-1.79-.57-2.76-.38-.96-.98-1.87-1.79-2.71-.82-.84-1.87-1.53-3.15-2.06-1.28-.53-2.83-.79-4.64-.79s-3.28.28-4.59.83c-1.31.55-2.41,1.24-3.28,2.06-.88.82-1.52,1.71-1.92,2.67-.41.96-.61,1.88-.61,2.76,0,.23.12.35.35.35h19.86Z"/><path class="cls-1" d="m325.64,503.59c-1.05,1.05-2.62,2-4.73,2.84s-4.26,1.27-6.48,1.27c-3.09,0-5.88-.55-8.36-1.66-2.48-1.11-4.58-2.68-6.3-4.73-1.72-2.04-3.05-4.46-3.98-7.26-.93-2.8-1.4-5.92-1.4-9.36s.5-6.49,1.49-9.32c.99-2.83,2.39-5.26,4.2-7.31,1.81-2.04,3.92-3.62,6.34-4.72,2.42-1.11,5.09-1.66,8.01-1.66s5.18.48,7.13,1.44c1.95.96,3.37,1.88,4.24,2.76.17.17.35.23.52.17.18-.06.26-.2.26-.44v-19.95c0-.29.15-.44.44-.44h9.62c.29,0,.44.15.44.44v60.72c0,.29-.15.44-.44.44h-8.31c-.52,0-.82-.14-.88-.44l-.88-2.8c-.06-.17-.19-.26-.39-.26s-.39.09-.57.26Zm-20.74-18.9c0,3.97.95,7.19,2.84,9.67,1.9,2.48,4.71,3.72,8.44,3.72,3.5,0,6.11-1.24,7.83-3.72,1.72-2.48,2.58-5.7,2.58-9.67,0-4.38-.86-7.7-2.58-9.97-1.72-2.28-4.33-3.41-7.83-3.41-3.73,0-6.55,1.24-8.44,3.72-1.9,2.48-2.84,5.7-2.84,9.67Z"/><path class="cls-1" d="m378.66,503.59c-.18-.17-.37-.26-.57-.26s-.34.09-.39.26l-.88,2.8c-.06.29-.35.44-.88.44h-8.31c-.29,0-.44-.14-.44-.44v-60.72c0-.29.15-.44.44-.44h9.62c.29,0,.44.15.44.44v19.95c0,.23.09.38.26.44.17.06.35,0,.52-.17.88-.88,2.29-1.79,4.24-2.76,1.95-.96,4.33-1.44,7.13-1.44s5.51.56,7.96,1.66c2.45,1.11,4.58,2.68,6.39,4.72,1.81,2.04,3.21,4.48,4.2,7.31.99,2.83,1.49,5.94,1.49,9.32s-.47,6.56-1.4,9.36c-.93,2.8-2.26,5.22-3.98,7.26-1.72,2.04-3.82,3.62-6.3,4.73-2.48,1.11-5.27,1.66-8.36,1.66-2.22,0-4.38-.42-6.48-1.27-2.1-.84-3.67-1.79-4.72-2.84Zm20.74-18.9c0-3.97-.95-7.19-2.84-9.67-1.9-2.48-4.71-3.72-8.44-3.72-3.5,0-6.11,1.14-7.83,3.41-1.72,2.27-2.58,5.6-2.58,9.97,0,3.97.86,7.19,2.58,9.67,1.72,2.48,4.33,3.72,7.83,3.72,3.73,0,6.55-1.24,8.44-3.72,1.9-2.48,2.84-5.7,2.84-9.67Z"/><path class="cls-1" d="m444.73,462.99c.12-.29.29-.44.53-.44h10.15c.41,0,.55.15.44.44l-16.8,50.14c-1.28,3.73-3.03,6.5-5.25,8.31-2.22,1.81-5.19,2.71-8.92,2.71h-12.86c-.29,0-.44-.15-.44-.44v-8.23c0-.29.15-.44.44-.44h10.67c1.4,0,2.44-.23,3.11-.7.67-.47,1.09-1.11,1.27-1.93.17-.82.15-1.74-.09-2.76-.23-1.02-.52-2.12-.88-3.28l-14.61-43.4c-.12-.29.03-.44.44-.44h10.24c.23,0,.41.15.52.44l10.59,33.86c.12.23.26.35.44.35s.32-.12.44-.35l10.59-33.86Z"/><path class="cls-1" d="m480.95,506.83c-.29,0-.44-.14-.44-.44v-60.72c0-.29.14-.44.44-.44h22.49c4.61,0,8.63.79,12.08,2.36,3.44,1.58,6.31,3.75,8.62,6.52,2.3,2.77,4.02,6.07,5.16,9.89,1.14,3.82,1.71,8.04,1.71,12.64s-.57,8.85-1.71,12.56c-1.14,3.71-2.86,6.87-5.16,9.49-2.31,2.62-5.18,4.64-8.62,6.04-3.44,1.4-7.47,2.1-12.08,2.1h-22.49Zm22.49-9.62c5.31,0,9.41-1.75,12.29-5.25,2.89-3.5,4.33-8.6,4.33-15.31,0-3.33-.38-6.33-1.14-9.01-.76-2.68-1.84-4.97-3.24-6.87s-3.14-3.35-5.21-4.38c-2.07-1.02-4.42-1.53-7.04-1.53h-12.08c-.23,0-.35.12-.35.35v41.56c0,.29.14.44.44.44h11.99Z"/><path class="cls-1" d="m580.79,484.69c0,3.44-.5,6.56-1.49,9.36-.99,2.8-2.42,5.22-4.29,7.26-1.87,2.04-4.16,3.62-6.87,4.73-2.71,1.11-5.76,1.66-9.14,1.66s-6.51-.55-9.19-1.66c-2.68-1.11-4.94-2.68-6.78-4.73-1.84-2.04-3.25-4.46-4.24-7.26-.99-2.8-1.49-5.92-1.49-9.36s.5-6.58,1.49-9.41c.99-2.83,2.41-5.25,4.24-7.26,1.84-2.01,4.1-3.57,6.78-4.68,2.68-1.11,5.74-1.66,9.19-1.66s6.43.56,9.14,1.66c2.71,1.11,5,2.68,6.87,4.72,1.87,2.04,3.29,4.48,4.29,7.31.99,2.83,1.49,5.94,1.49,9.32Zm-10.5,0c0-4.14-.95-7.41-2.84-9.8-1.9-2.39-4.71-3.59-8.44-3.59s-6.46,1.2-8.36,3.59c-1.9,2.39-2.84,5.66-2.84,9.8s.95,7.41,2.84,9.8c1.9,2.39,4.68,3.59,8.36,3.59s6.55-1.2,8.44-3.59c1.89-2.39,2.84-5.66,2.84-9.8Z"/><path class="cls-1" d="m617.45,503.59c-1.05,1.05-2.62,2-4.73,2.84s-4.26,1.27-6.48,1.27c-3.09,0-5.88-.55-8.36-1.66-2.48-1.11-4.58-2.68-6.3-4.73-1.72-2.04-3.05-4.46-3.98-7.26-.93-2.8-1.4-5.92-1.4-9.36s.5-6.49,1.49-9.32c.99-2.83,2.39-5.26,4.2-7.31,1.81-2.04,3.92-3.62,6.34-4.72,2.42-1.11,5.09-1.66,8.01-1.66s5.18.48,7.13,1.44c1.95.96,3.37,1.88,4.24,2.76.18.17.35.23.53.17.18-.06.26-.2.26-.44v-19.95c0-.29.15-.44.44-.44h9.62c.29,0,.44.15.44.44v60.72c0,.29-.15.44-.44.44h-8.31c-.52,0-.82-.14-.88-.44l-.88-2.8c-.06-.17-.19-.26-.39-.26s-.39.09-.57.26Zm-20.74-18.9c0,3.97.95,7.19,2.84,9.67,1.89,2.48,4.71,3.72,8.44,3.72,3.5,0,6.11-1.24,7.83-3.72,1.72-2.48,2.58-5.7,2.58-9.67,0-4.38-.86-7.7-2.58-9.97-1.72-2.28-4.33-3.41-7.83-3.41-3.73,0-6.55,1.24-8.44,3.72-1.9,2.48-2.84,5.7-2.84,9.67Z"/><path class="cls-1" d="m637.05,484.69c0-3.38.52-6.49,1.58-9.32,1.05-2.83,2.48-5.26,4.29-7.31,1.81-2.04,3.92-3.62,6.34-4.72,2.42-1.11,5-1.66,7.74-1.66,2.57,0,4.87.39,6.91,1.18,2.04.79,3.7,1.79,4.99,3.02.35.35.58.35.7,0l.88-2.8c.12-.35.41-.53.88-.53h8.31c.29,0,.44.15.44.44v42.53c0,2.97-.54,5.66-1.62,8.05-1.08,2.39-2.58,4.43-4.51,6.12-1.92,1.69-4.19,3-6.78,3.94-2.6.93-5.41,1.4-8.44,1.4-2.8,0-5.4-.39-7.79-1.18-2.39-.79-4.48-1.84-6.26-3.15-1.78-1.31-3.17-2.84-4.16-4.59-.99-1.75-1.49-3.59-1.49-5.51,0-.29.14-.44.44-.44h9.45c.23,0,.41.14.53.44.06.29.26.71.61,1.27.35.55.89,1.09,1.62,1.62.73.52,1.66.98,2.8,1.36,1.14.38,2.55.57,4.24.57,2.04,0,3.73-.28,5.07-.83,1.34-.56,2.44-1.28,3.28-2.19.85-.91,1.46-1.96,1.84-3.15.38-1.2.6-2.43.66-3.72v-1.84c0-.17-.09-.29-.26-.35-.18-.06-.32-.03-.44.09-.35.35-.88.77-1.58,1.27-.7.5-1.56.96-2.58,1.4-1.02.44-2.19.82-3.5,1.14-1.31.32-2.73.48-4.24.48-2.74,0-5.32-.55-7.74-1.66-2.42-1.11-4.54-2.68-6.34-4.73-1.81-2.04-3.24-4.46-4.29-7.26-1.05-2.8-1.58-5.92-1.58-9.36Zm10.5,0c0,3.97.93,7.19,2.8,9.67,1.87,2.48,4.67,3.72,8.4,3.72s6.4-1.14,8.18-3.41c1.78-2.28,2.67-5.6,2.67-9.98,0-3.97-.89-7.19-2.67-9.67-1.78-2.48-4.51-3.72-8.18-3.72s-6.53,1.24-8.4,3.72c-1.87,2.48-2.8,5.7-2.8,9.67Z"/><path class="cls-1" d="m729.18,488.28c-.12.29-.26.44-.44.44h-30.45c-.29,0-.44.15-.44.44,0,1.22.25,2.38.74,3.46.49,1.08,1.21,2.03,2.14,2.84.93.82,2.03,1.46,3.28,1.92,1.25.47,2.67.7,4.24.7,1.93,0,3.63-.28,5.12-.83,1.49-.55,2.61-1.59,3.37-3.11.12-.29.35-.44.7-.44h10.24c.41,0,.55.15.44.44-.99,4.26-3.3,7.58-6.91,9.97-3.62,2.39-7.93,3.59-12.95,3.59-3.21,0-6.12-.55-8.75-1.66s-4.87-2.68-6.74-4.73c-1.87-2.04-3.31-4.46-4.33-7.26-1.02-2.8-1.53-5.92-1.53-9.36s.51-6.58,1.53-9.41c1.02-2.83,2.46-5.25,4.33-7.26,1.87-2.01,4.11-3.57,6.74-4.68,2.62-1.11,5.54-1.66,8.75-1.66s6.12.56,8.75,1.66c2.62,1.11,4.87,2.68,6.74,4.72,1.87,2.04,3.31,4.48,4.33,7.31,1.02,2.83,1.53,5.94,1.53,9.32,0,.88-.04,1.56-.13,2.06-.09.5-.19,1.01-.31,1.53Zm-11.11-8.31c.23,0,.35-.12.35-.35,0-.88-.19-1.79-.57-2.76-.38-.96-.98-1.87-1.79-2.71-.82-.84-1.87-1.53-3.15-2.06-1.29-.53-2.83-.79-4.64-.79s-3.28.28-4.59.83c-1.31.55-2.41,1.24-3.28,2.06-.88.82-1.52,1.71-1.92,2.67-.41.96-.61,1.88-.61,2.76,0,.23.12.35.35.35h19.86Z"/><path class="cls-1" d="m782.21,498.08c2.8,0,5.12-.5,6.96-1.49,1.84-.99,3.32-2.13,4.46-3.41,1.14-1.28,1.98-2.55,2.54-3.81.55-1.25.92-2.14,1.09-2.67.12-.29.29-.44.53-.44h9.97c.29,0,.44.15.44.44,0,.64-.16,1.62-.48,2.93-.32,1.31-.88,2.74-1.66,4.29-.79,1.55-1.82,3.14-3.11,4.77-1.28,1.63-2.89,3.12-4.81,4.46-1.93,1.34-4.2,2.44-6.83,3.28s-5.66,1.27-9.1,1.27c-4.61,0-8.63-.74-12.07-2.23-3.44-1.49-6.32-3.6-8.62-6.34-2.3-2.74-4.03-6.01-5.16-9.8-1.14-3.79-1.71-8.02-1.71-12.69s.57-8.88,1.71-12.82c1.14-3.94,2.86-7.35,5.16-10.24,2.3-2.89,5.18-5.15,8.62-6.78,3.44-1.63,7.47-2.45,12.07-2.45,3.27,0,6.17.39,8.71,1.18,2.54.79,4.77,1.81,6.69,3.06,1.93,1.25,3.56,2.67,4.9,4.24,1.34,1.58,2.43,3.14,3.28,4.68.84,1.55,1.46,3.02,1.84,4.42.38,1.4.57,2.54.57,3.41,0,.29-.15.44-.44.44h-10.06c-.23,0-.41-.15-.53-.44-.23-.64-.61-1.6-1.14-2.89-.53-1.28-1.36-2.55-2.49-3.81-1.14-1.25-2.61-2.35-4.42-3.28-1.81-.93-4.11-1.4-6.91-1.4-2.62,0-4.97.55-7.04,1.66-2.07,1.11-3.81,2.67-5.21,4.68-1.4,2.01-2.48,4.4-3.24,7.17-.76,2.77-1.14,5.82-1.14,9.14,0,6.71,1.44,11.96,4.33,15.75,2.89,3.79,6.98,5.69,12.29,5.69Z"/><path class="cls-1" d="m857.19,484.69c0,3.44-.5,6.56-1.49,9.36-.99,2.8-2.42,5.22-4.29,7.26-1.87,2.04-4.16,3.62-6.87,4.73-2.71,1.11-5.76,1.66-9.14,1.66s-6.5-.55-9.19-1.66c-2.68-1.11-4.94-2.68-6.78-4.73-1.84-2.04-3.25-4.46-4.24-7.26-.99-2.8-1.49-5.92-1.49-9.36s.49-6.58,1.49-9.41c.99-2.83,2.41-5.25,4.24-7.26,1.84-2.01,4.1-3.57,6.78-4.68,2.68-1.11,5.75-1.66,9.19-1.66s6.43.56,9.14,1.66c2.71,1.11,5,2.68,6.87,4.72,1.87,2.04,3.29,4.48,4.29,7.31.99,2.83,1.49,5.94,1.49,9.32Zm-10.5,0c0-4.14-.95-7.41-2.84-9.8-1.9-2.39-4.71-3.59-8.44-3.59s-6.46,1.2-8.36,3.59c-1.9,2.39-2.84,5.66-2.84,9.8s.95,7.41,2.84,9.8c1.89,2.39,4.68,3.59,8.36,3.59s6.55-1.2,8.44-3.59c1.89-2.39,2.84-5.66,2.84-9.8Z"/><path class="cls-1" d="m876.79,465.79c.41-.53,1.01-1.04,1.79-1.53.79-.5,1.66-.93,2.62-1.31.96-.38,1.97-.69,3.02-.92,1.05-.23,2.04-.35,2.97-.35,3.44,0,6.34.57,8.71,1.71,2.36,1.14,4.26,2.67,5.69,4.59,1.43,1.92,2.46,4.14,3.11,6.65.64,2.51.96,5.13.96,7.88v23.89c0,.29-.15.44-.44.44h-9.62c-.29,0-.44-.14-.44-.44v-23.89c0-1.28-.17-2.59-.53-3.94-.35-1.34-.92-2.55-1.71-3.63-.79-1.08-1.79-1.95-3.02-2.62-1.22-.67-2.71-1.01-4.46-1.01s-3.15.29-4.38.88c-1.22.58-2.23,1.36-3.02,2.32-.79.96-1.36,2.07-1.71,3.33-.35,1.25-.53,2.52-.53,3.81v24.76c0,.29-.15.44-.44.44h-9.62c-.29,0-.44-.14-.44-.44v-43.4c0-.29.15-.44.44-.44h8.31c.47,0,.73.15.79.44l.96,2.71c.06.17.19.29.39.35.2.06.39-.03.57-.26Z"/><path class="cls-1" d="m952.04,493.09c0,4.72-1.74,8.34-5.21,10.85-3.47,2.51-8.21,3.76-14.22,3.76-3.27,0-6.14-.44-8.62-1.31-2.48-.88-4.57-2.03-6.26-3.46-1.69-1.43-2.96-3.06-3.81-4.9-.85-1.84-1.27-3.75-1.27-5.73,0-.29.14-.44.44-.44h10.06c.29,0,.44.15.44.44,0,1.4.71,2.71,2.14,3.94,1.43,1.23,3.72,1.84,6.87,1.84.93,0,1.93-.06,2.98-.17,1.05-.12,2.01-.35,2.89-.7s1.6-.86,2.19-1.53c.58-.67.88-1.53.88-2.58,0-.93-.29-1.66-.88-2.19-.58-.53-1.33-.92-2.23-1.18-.91-.26-1.88-.44-2.93-.52-1.05-.09-2.01-.19-2.89-.31-2.27-.23-4.55-.55-6.82-.96-2.28-.41-4.33-1.08-6.17-2.01-1.84-.93-3.33-2.25-4.46-3.94-1.14-1.69-1.71-3.91-1.71-6.65,0-1.87.44-3.63,1.31-5.29.87-1.66,2.11-3.11,3.71-4.33s3.52-2.2,5.76-2.93c2.24-.73,4.73-1.09,7.46-1.09s5.35.32,7.68.96c2.33.64,4.33,1.62,6.02,2.93,1.69,1.31,3.01,2.93,3.97,4.86.96,1.93,1.44,4.14,1.44,6.65,0,.29-.12.44-.35.44h-9.72c-.29,0-.43-.14-.43-.44,0-.58-.15-1.22-.44-1.92-.29-.7-.77-1.33-1.44-1.88-.67-.55-1.56-1.02-2.67-1.4-1.11-.38-2.45-.57-4.03-.57-2.62,0-4.58.38-5.86,1.14-1.28.76-1.93,1.72-1.93,2.89,0,.7.22,1.27.66,1.71s1.02.79,1.75,1.05c.73.26,1.56.48,2.49.66.93.18,1.89.32,2.89.44,1.93.23,4.07.51,6.43.83,2.36.32,4.56.93,6.61,1.84,2.04.91,3.76,2.23,5.16,3.98,1.4,1.75,2.1,4.17,2.1,7.26Z"/><path class="cls-1" d="m955.19,471.74c-.29,0-.44-.14-.44-.44v-8.31c0-.29.15-.44.44-.44h7.17c.29,0,.44-.14.44-.44v-11.81c0-.29.14-.44.44-.44h9.62c.29,0,.44.15.44.44v11.81c0,.29.14.44.44.44h8.93c.29,0,.44.15.44.44v8.31c0,.29-.15.44-.44.44h-8.93c-.29,0-.44.15-.44.44v22.23c0,.88.31,1.56.92,2.06.61.5,1.36.74,2.23.74h6.21c.29,0,.44.15.44.44v8.75c0,.29-.15.44-.44.44h-6.83c-4.61,0-7.93-.96-9.97-2.89-2.04-1.92-3.06-5.08-3.06-9.45v-22.31c0-.29-.15-.44-.44-.44h-7.17Z"/><path class="cls-1" d="m1011.19,471.74c-1.69,0-3.15.26-4.38.79-1.22.52-2.23,1.25-3.02,2.19-.79.93-1.36,2-1.71,3.19-.35,1.2-.53,2.44-.53,3.72v24.76c0,.29-.15.44-.44.44h-9.71c-.23,0-.35-.14-.35-.44v-43.4c0-.29.12-.44.35-.44h8.4c.47,0,.76.18.88.53l.88,2.62c.23.41.5.47.79.17,1.34-1.34,2.79-2.38,4.33-3.11,1.54-.73,3.34-1.09,5.38-1.09h4.81c.29,0,.44.15.44.44v9.19c0,.29-.15.44-.44.44h-5.69Z"/><path class="cls-1" d="m1051.09,503.59c-.93.99-2.29,1.92-4.07,2.8-1.78.88-3.6,1.31-5.47,1.31-3.68,0-6.74-.57-9.19-1.71-2.45-1.14-4.43-2.67-5.95-4.59s-2.6-4.14-3.24-6.65c-.64-2.51-.96-5.13-.96-7.88v-23.89c0-.29.14-.44.44-.44h9.62c.29,0,.44.15.44.44v23.89c0,1.34.17,2.67.53,3.98.35,1.31.92,2.51,1.71,3.59.79,1.08,1.79,1.96,3.02,2.62,1.22.67,2.71,1.01,4.46,1.01s3.15-.29,4.38-.88c1.22-.58,2.23-1.36,3.02-2.32.79-.96,1.36-2.06,1.71-3.28.35-1.23.53-2.51.53-3.85v-24.76c0-.29.14-.44.44-.44h9.71c.23,0,.35.15.35.44v43.4c0,.29-.15.44-.44.44h-8.31c-.41,0-.7-.17-.88-.53l-.88-2.62c-.12-.17-.26-.29-.44-.35-.18-.06-.35.03-.53.26Z"/><path class="cls-1" d="m1091.6,461.68c5.6,0,10.21,1.39,13.82,4.16,3.62,2.77,5.8,6.52,6.56,11.24.06.29-.09.44-.44.44h-9.89c-.29,0-.5-.14-.61-.44-.76-1.92-1.88-3.43-3.37-4.51-1.49-1.08-3.51-1.62-6.08-1.62-1.87,0-3.47.35-4.81,1.05-1.34.7-2.46,1.66-3.37,2.89s-1.57,2.68-2.01,4.38c-.44,1.69-.66,3.5-.66,5.42s.22,3.73.66,5.42c.44,1.69,1.11,3.15,2.01,4.38.9,1.23,2.03,2.19,3.37,2.89,1.34.7,2.95,1.05,4.81,1.05,2.92,0,5.06-.54,6.43-1.62,1.37-1.08,2.43-2.58,3.19-4.51.12-.29.32-.44.61-.44h9.89c.35,0,.49.15.44.44-.93,5.02-3.21,8.84-6.83,11.46s-8.2,3.94-13.74,3.94c-3.44,0-6.49-.55-9.13-1.66-2.65-1.11-4.87-2.68-6.66-4.73-1.79-2.04-3.17-4.46-4.12-7.26-.95-2.8-1.43-5.92-1.43-9.36s.48-6.58,1.43-9.41c.96-2.83,2.33-5.25,4.12-7.26,1.79-2.01,4.01-3.57,6.66-4.68,2.65-1.11,5.69-1.66,9.13-1.66Z"/><path class="cls-1" d="m1115.23,471.74c-.29,0-.44-.14-.44-.44v-8.31c0-.29.15-.44.44-.44h7.17c.29,0,.44-.14.44-.44v-11.81c0-.29.15-.44.44-.44h9.62c.29,0,.44.15.44.44v11.81c0,.29.15.44.44.44h8.93c.29,0,.44.15.44.44v8.31c0,.29-.15.44-.44.44h-8.93c-.29,0-.44.15-.44.44v22.23c0,.88.31,1.56.92,2.06.61.5,1.36.74,2.23.74h6.21c.29,0,.44.15.44.44v8.75c0,.29-.15.44-.44.44h-6.82c-4.61,0-7.94-.96-9.98-2.89s-3.06-5.08-3.06-9.45v-22.31c0-.29-.15-.44-.44-.44h-7.17Z"/><path class="cls-1" d="m1151.1,456.78c-.29,0-.44-.15-.44-.44v-10.67c0-.29.15-.44.44-.44h10.5c.29,0,.44.15.44.44v10.67c0,.29-.15.44-.44.44h-10.5Zm.44,50.05c-.29,0-.44-.14-.44-.44v-43.4c0-.29.15-.44.44-.44h9.62c.29,0,.44.15.44.44v43.4c0,.29-.15.44-.44.44h-9.62Z"/><path class="cls-1" d="m1213.22,484.69c0,3.44-.5,6.56-1.49,9.36-.99,2.8-2.42,5.22-4.29,7.26-1.87,2.04-4.16,3.62-6.87,4.73s-5.76,1.66-9.14,1.66-6.5-.55-9.19-1.66-4.94-2.68-6.78-4.73c-1.84-2.04-3.25-4.46-4.24-7.26-.99-2.8-1.49-5.92-1.49-9.36s.49-6.58,1.49-9.41c.99-2.83,2.41-5.25,4.24-7.26,1.84-2.01,4.1-3.57,6.78-4.68,2.68-1.11,5.75-1.66,9.19-1.66s6.43.56,9.14,1.66c2.71,1.11,5,2.68,6.87,4.72,1.87,2.04,3.29,4.48,4.29,7.31.99,2.83,1.49,5.94,1.49,9.32Zm-10.5,0c0-4.14-.95-7.41-2.84-9.8-1.9-2.39-4.71-3.59-8.45-3.59s-6.46,1.2-8.36,3.59c-1.9,2.39-2.84,5.66-2.84,9.8s.95,7.41,2.84,9.8c1.89,2.39,4.68,3.59,8.36,3.59s6.55-1.2,8.45-3.59c1.89-2.39,2.84-5.66,2.84-9.8Z"/><path class="cls-1" d="m1232.82,465.79c.41-.53,1.01-1.04,1.79-1.53.79-.5,1.66-.93,2.62-1.31.96-.38,1.97-.69,3.02-.92,1.05-.23,2.04-.35,2.97-.35,3.44,0,6.34.57,8.71,1.71,2.36,1.14,4.26,2.67,5.69,4.59,1.43,1.92,2.46,4.14,3.11,6.65.64,2.51.96,5.13.96,7.88v23.89c0,.29-.15.44-.44.44h-9.62c-.29,0-.44-.14-.44-.44v-23.89c0-1.28-.18-2.59-.53-3.94-.35-1.34-.92-2.55-1.71-3.63-.79-1.08-1.79-1.95-3.02-2.62-1.23-.67-2.71-1.01-4.46-1.01s-3.15.29-4.38.88c-1.22.58-2.23,1.36-3.02,2.32-.79.96-1.36,2.07-1.71,3.33-.35,1.25-.53,2.52-.53,3.81v24.76c0,.29-.15.44-.44.44h-9.62c-.29,0-.44-.14-.44-.44v-43.4c0-.29.14-.44.44-.44h8.31c.47,0,.73.15.79.44l.96,2.71c.06.17.19.29.39.35.21.06.39-.03.57-.26Z"/><path class="cls-1" d="m1339.92,445.23c.29,0,.44.15.44.44v60.72c0,.29-.15.44-.44.44h-13.04c-.29,0-.5-.14-.61-.44l-23.89-46.03c-.12-.29-.29-.42-.53-.39-.23.03-.35.16-.35.39v46.03c0,.29-.15.44-.44.44h-9.71c-.23,0-.35-.14-.35-.44v-60.72c0-.29.14-.44.44-.44h13.04c.18,0,.35.15.53.44l23.97,46.02c.12.29.29.42.53.39.23-.03.35-.16.35-.39v-46.02c0-.29.15-.44.44-.44h9.62Z"/><path class="cls-1" d="m1390.85,488.28c-.12.29-.26.44-.44.44h-30.45c-.29,0-.44.15-.44.44,0,1.22.25,2.38.74,3.46.49,1.08,1.21,2.03,2.14,2.84.93.82,2.03,1.46,3.28,1.92,1.25.47,2.67.7,4.24.7,1.93,0,3.63-.28,5.12-.83,1.49-.55,2.61-1.59,3.37-3.11.12-.29.35-.44.7-.44h10.24c.41,0,.55.15.44.44-.99,4.26-3.3,7.58-6.91,9.97-3.62,2.39-7.93,3.59-12.95,3.59-3.21,0-6.12-.55-8.75-1.66s-4.87-2.68-6.74-4.73c-1.87-2.04-3.31-4.46-4.33-7.26-1.02-2.8-1.53-5.92-1.53-9.36s.51-6.58,1.53-9.41c1.02-2.83,2.46-5.25,4.33-7.26,1.87-2.01,4.11-3.57,6.74-4.68,2.62-1.11,5.54-1.66,8.75-1.66s6.12.56,8.75,1.66c2.62,1.11,4.87,2.68,6.74,4.72,1.87,2.04,3.31,4.48,4.33,7.31,1.02,2.83,1.53,5.94,1.53,9.32,0,.88-.04,1.56-.13,2.06-.09.5-.19,1.01-.31,1.53Zm-11.11-8.31c.23,0,.35-.12.35-.35,0-.88-.19-1.79-.57-2.76-.38-.96-.98-1.87-1.79-2.71-.82-.84-1.87-1.53-3.15-2.06-1.29-.53-2.83-.79-4.64-.79s-3.28.28-4.59.83c-1.31.55-2.41,1.24-3.28,2.06-.88.82-1.52,1.71-1.92,2.67-.41.96-.61,1.88-.61,2.76,0,.23.12.35.35.35h19.86Z"/><path class="cls-1" d="m1394.52,471.74c-.29,0-.44-.14-.44-.44v-8.31c0-.29.15-.44.44-.44h7.18c.29,0,.44-.14.44-.44v-11.81c0-.29.14-.44.44-.44h9.62c.29,0,.44.15.44.44v11.81c0,.29.14.44.44.44h8.92c.29,0,.44.15.44.44v8.31c0,.29-.14.44-.44.44h-8.92c-.29,0-.44.15-.44.44v22.23c0,.88.31,1.56.92,2.06.61.5,1.36.74,2.23.74h6.21c.29,0,.44.15.44.44v8.75c0,.29-.14.44-.44.44h-6.82c-4.61,0-7.93-.96-9.97-2.89-2.04-1.92-3.06-5.08-3.06-9.45v-22.31c0-.29-.15-.44-.44-.44h-7.18Z"/><path class="cls-1" d="m1482.55,463.08c.12-.35.29-.53.53-.53h9.8c.35,0,.49.18.44.53l-10.15,43.31c-.12.29-.29.44-.53.44h-14.96c-.23,0-.41-.14-.53-.44l-7.7-33.86c-.06-.29-.21-.44-.44-.44s-.38.15-.44.44l-7.7,33.86c-.12.29-.29.44-.53.44h-14.96c-.23,0-.41-.14-.53-.44l-10.15-43.31c-.12-.35,0-.53.35-.53h9.8c.29,0,.5.18.61.53l7,33.78c.06.29.2.44.44.44s.38-.15.44-.44l8.05-33.78c.12-.35.32-.53.61-.53h14c.29,0,.49.18.61.53l8.05,33.78c.06.23.2.35.44.35s.38-.12.44-.35l7-33.78Z"/><path class="cls-1" d="m1540.12,484.69c0,3.44-.5,6.56-1.49,9.36-.99,2.8-2.42,5.22-4.29,7.26-1.87,2.04-4.16,3.62-6.87,4.73-2.71,1.11-5.76,1.66-9.14,1.66s-6.51-.55-9.19-1.66c-2.68-1.11-4.94-2.68-6.78-4.73-1.84-2.04-3.25-4.46-4.24-7.26-.99-2.8-1.49-5.92-1.49-9.36s.49-6.58,1.49-9.41c.99-2.83,2.41-5.25,4.24-7.26,1.84-2.01,4.1-3.57,6.78-4.68,2.68-1.11,5.74-1.66,9.19-1.66s6.43.56,9.14,1.66c2.71,1.11,5,2.68,6.87,4.72,1.87,2.04,3.29,4.48,4.29,7.31.99,2.83,1.49,5.94,1.49,9.32Zm-10.5,0c0-4.14-.95-7.41-2.84-9.8-1.9-2.39-4.71-3.59-8.44-3.59s-6.46,1.2-8.36,3.59c-1.9,2.39-2.84,5.66-2.84,9.8s.95,7.41,2.84,9.8c1.89,2.39,4.68,3.59,8.36,3.59s6.55-1.2,8.44-3.59c1.89-2.39,2.84-5.66,2.84-9.8Z"/><path class="cls-1" d="m1568.38,471.74c-1.69,0-3.15.26-4.38.79-1.22.52-2.23,1.25-3.02,2.19-.79.93-1.36,2-1.71,3.19-.35,1.2-.53,2.44-.53,3.72v24.76c0,.29-.15.44-.44.44h-9.71c-.23,0-.35-.14-.35-.44v-43.4c0-.29.12-.44.35-.44h8.4c.47,0,.76.18.88.53l.88,2.62c.23.41.5.47.79.17,1.34-1.34,2.78-2.38,4.33-3.11,1.54-.73,3.34-1.09,5.38-1.09h4.81c.29,0,.44.15.44.44v9.19c0,.29-.15.44-.44.44h-5.69Z"/><path class="cls-1" d="m1598.74,484.69c-.64.58-1.37,1.24-2.19,1.97-.82.73-1.63,1.42-2.45,2.06-.93.76-1.87,1.58-2.8,2.45-.35.29-.53.64-.53,1.05v14.17c0,.29-.15.44-.44.44h-9.62c-.29,0-.44-.14-.44-.44v-60.72c0-.29.14-.44.44-.44h9.62c.29,0,.44.15.44.44v31.94c0,.12.07.22.22.31.14.09.28.07.39-.04l17.24-14.88c.35-.29.73-.44,1.14-.44h13.83c.23,0,.38.1.44.31.06.21,0,.37-.18.48l-16.71,14.26c-.12.12-.12.32,0,.61l16.45,27.91c.23.47.12.7-.35.7h-10.41c-.35,0-.61-.14-.79-.44l-12.69-21.7c-.12-.29-.32-.29-.61,0Z"/><rect class="cls-2" x=".36" y="385.25" width="1625.24" height="2.32"/></svg>